<svg xmlns="http://www.w3.org/2000/svg" viewBox="0 0 500 500">
    <path fill="#000" d="M 162.754 167.59 L 145.922 167.59 L 206.256 246.845 L 223.185 246.845 L 192.924 207.22 L 223.185 167.69 L 206.256 167.69 L 184.508 196.238 L 162.754 167.69 L 162.754 167.59 Z M 180.062 224.188 L 171.549 213.207 L 145.922 246.845 L 162.754 246.845 L 180.062 224.188 Z" style="transform-box: fill-box; transform-origin: 50% 50%;" transform="matrix(-1, 0, 0, -1, -0.000021, -0.000001)"></path>
    <path fill="#000" d="M 145.307 167.552 L 77.362 246.852 L 59.315 246.852 L 59.315 167.552 L 73.753 167.552 L 83.058 167.708 L 83.059 180.972 L 73.753 181.18 L 73.753 229.852 L 127.047 167.552 L 145.307 167.552 Z" style="transform-box: fill-box; transform-origin: 50% 50%;" transform="matrix(-1, 0, 0, -1, 0.000014, 0.00001)"></path>
    <path fill="#000" d="M 228.283 247.136 C 226.823 247.136 225.654 246.556 224.633 245.686 C 223.61 244.816 223.026 243.367 223.026 241.917 C 223.026 240.467 223.464 239.308 224.487 238.293 C 225.508 237.278 226.823 236.843 228.283 236.843 C 229.743 236.843 230.911 237.278 231.934 238.293 C 233.697 239.891 234.065 242.51 232.81 244.527 C 231.882 246.07 230.237 247.05 228.429 247.136 L 228.283 247.136 Z" style="transform-box: fill-box; transform-origin: 50% 50%;" transform="matrix(-1, 0, 0, -1, -0.00002, -0.00001)"></path>
</svg>