<svg
   viewBox="55 165 31331.455 6863.6421"
   version="1.1"
   id="svg3"
   width="500"
   height="100"
   xmlns:xlink="http://www.w3.org/1999/xlink"
   xmlns="http://www.w3.org/2000/svg"
   xmlns:svg="http://www.w3.org/2000/svg">
  <defs
     id="defs3">
    <linearGradient
       id="swatch5">
      <stop
         style="stop-color:#000016;stop-opacity:1;"
         offset="0"
         id="stop5" />
    </linearGradient>
    <linearGradient
       xlink:href="#swatch5"
       id="linearGradient5"
       x1="153.25"
       y1="208.125"
       x2="166.5"
       y2="208.125"
       gradientUnits="userSpaceOnUse"
       gradientTransform="matrix(93.040291,0,0,80.362946,8959.8097,-10214.246)" />
  </defs>
  <a
     id="a4"
     transform="matrix(95.323697,0,0,80.348176,1653.1923,-13043.958)"
     style="fill:#000016;fill-opacity:1">
    <g
       id="g5"
       transform="matrix(0.94203684,0,0,1,3.6925233,0)">
      <path
         fill="#000000"
         d="m 208.68525,249.99776 18.74601,0.006 -67.203,-84.98841 -19.07608,-0.0122 33.78051,42.30716 -33.78243,42.69145 18.91711,-0.017 24.27757,-30.88644 24.3291,30.64337 z m -19.10818,-60.59867 9.52071,11.78699 28.66057,-36.10696 -18.28645,-0.0266 z"
         id="path1"
         style="fill:#FFFFFF;fill-opacity:1;stroke-width:1.09565"
         transform="translate(8.4696699)" />
      <path
         fill="#000000"
         d="m 63.704655,249.97191 68.108025,-84.97367 17.82433,0.004 v 85.00883 c -7.85452,-0.10574 -15.28245,0.0315 -23.71258,-0.009 l -14.52442,-14.01377 24.0373,0.16493 V 183.33937 L 83.559831,250.0126 Z"
         id="path2"
         style="fill:#FFFFFF;fill-opacity:1;stroke-width:1.03603" />
    </g>
  </a>
  <ellipse
     style="fill:#FFFFFF;fill-opacity:1;stroke-width:1.03603"
     id="path4"
     cx="23834.627"
     cy="6511.2925"
     rx="616.39191"
     ry="532.40448" />
</svg>
